<?xml version="1.0" encoding="UTF-8" standalone="no"?>
<svg
   xmlns:dc="http://purl.org/dc/elements/1.1/"
   xmlns:cc="http://creativecommons.org/ns#"
   xmlns:rdf="http://www.w3.org/1999/02/22-rdf-syntax-ns#"
   xmlns:svg="http://www.w3.org/2000/svg"
   xmlns="http://www.w3.org/2000/svg"
   xmlns:sodipodi="http://sodipodi.sourceforge.net/DTD/sodipodi-0.dtd"
   xmlns:inkscape="http://www.inkscape.org/namespaces/inkscape"
   version="1.1"
   id="svg2"
   xml:space="preserve"
   width="422.35999"
   height="466.66666"
   viewBox="0 0 422.35999 466.66666"
   sodipodi:docname="atom_003.eps"><metadata
     id="metadata8"><rdf:RDF><cc:Work
         rdf:about=""><dc:format>image/svg+xml</dc:format><dc:type
           rdf:resource="http://purl.org/dc/dcmitype/StillImage" /></cc:Work></rdf:RDF></metadata><defs
     id="defs6" /><sodipodi:namedview
     pagecolor="#ffffff"
     bordercolor="#666666"
     borderopacity="1"
     objecttolerance="10"
     gridtolerance="10"
     guidetolerance="10"
     inkscape:pageopacity="0"
     inkscape:pageshadow="2"
     inkscape:window-width="640"
     inkscape:window-height="480"
     id="namedview4" /><g
     id="g10"
     inkscape:groupmode="layer"
     inkscape:label="ink_ext_XXXXXX"
     transform="matrix(1.3333333,0,0,-1.3333333,0,466.66667)"><g
       id="g12"
       transform="scale(0.1)"><path
         d="m 2774.21,1750.02 c 18.1,18.5 35.7,36.98 52.69,55.41 105.75,114.87 189.94,228.25 248.57,336.84 58.43,108.61 92.07,212.75 92.28,310.68 0.08,61.25 -13.85,120.21 -43.84,172.05 -41.02,71.27 -108.25,122.2 -189.48,153.8 -81.5,31.81 -177.99,46.04 -286.44,46.11 -135.26,-0.08 -289.67,-22.48 -456.72,-65.28 -36.62,-9.37 -73.84,-19.75 -111.61,-31.08 -24.07,-7.22 -48.3,-14.74 -72.8,-22.73 -94.96,-31.06 -192.97,-68.07 -292.81,-110.71 39.14,-18.89 85.47,-43.35 129.74,-71.87 67.71,26.99 134.25,51.2 199.1,72.4 22.09,7.23 43.91,14.01 65.6,20.56 37.92,11.44 75.2,21.87 111.72,31.21 159.5,40.79 304.86,61.58 427.18,61.58 h 0.6 c 98.16,0.07 181.17,-13.37 244.18,-38.13 63.29,-24.96 105.64,-59.48 131.35,-103.82 18.74,-32.6 28.22,-69.81 28.31,-114.09 0.2,-70.35 -25.67,-158.24 -78.38,-255.64 -60.9,-113.09 -157,-238.33 -281.96,-366.16 -12.78,12.06 -25.77,24.11 -38.99,36.15 -104.76,95.34 -223.13,190.16 -352.85,281.81 -40.68,28.75 -82.52,57.16 -125.39,85.2 -67.89,44.41 -138.33,87.87 -211.24,129.97 v 0.01 c -72.92,42.09 -145.76,81.35 -218.15,117.94 l -136.51,65.97 c -135.91,62.68 -269.23,115.26 -397.07,157.13 -13.52,-31.75 -24.54,-69.07 -31.84,-111.58 94.45,-31.07 192.38,-68.35 292.4,-111.53 45.12,-19.48 90.65,-40.17 136.51,-62.06 97.94,-46.75 197.24,-98.84 296.69,-156.27 99.45,-57.39 194.27,-117.32 283.74,-178.78 41.87,-28.77 82.53,-57.88 121.97,-87.22 109.45,-81.43 209.18,-164.67 297.48,-247.57 l 0.28,-0.11 82.86,-81.17 0.06,-0.22 c 0.01,0 0.01,0.02 0.03,0.02 17.24,-17.64 34.01,-35.25 50.16,-52.78 100.73,-109.33 179.29,-215.94 231.81,-313.35 52.7,-97.4 78.58,-185.29 78.37,-255.64 -0.08,-44.3 -9.55,-81.504 -28.3,-114.109 -25.7,-44.328 -68.06,-78.84 -131.34,-103.801 -22.4,-8.789 -47.38,-16.133 -74.63,-21.98 -17.09,58.281 -55.72,110.359 -112.48,143.125 -117.15,67.645 -266.96,27.508 -334.6,-89.653 -7.12,-12.332 -12.96,-25.027 -17.73,-37.949 -13.92,-37.703 -18,-77.32 -13.08,-115.586 9.42,-73.191 51.62,-141.316 120.47,-181.07 117.16,-67.641 266.95,-27.5 334.6,89.656 13.7,23.738 22.91,48.817 28.02,74.285 39.76,7.434 77.07,17.739 111.67,31.235 81.24,31.597 148.46,82.527 189.49,153.777 30,51.848 43.92,110.828 43.84,172.07 -0.2,97.93 -33.85,202.07 -92.28,310.67 -68.08,125.98 -170.53,258.65 -301.25,392.28 z m -2331.706,-0.03 c 26.43,-27.03 54.023,-54.08 82.726,-81.13 12.778,-12.05 25.754,-24.09 38.973,-36.13 79.059,-71.96 165.879,-143.61 259.469,-213.82 -3.223,43.34 -5.211,95.71 -2.656,148.35 -76.692,60.53 -147.918,121.74 -212.903,182.78 -28.859,27.1 -56.496,54.17 -82.855,81.13 -17.262,17.65 -34.028,35.26 -50.168,52.79 -100.742,109.34 -179.313,215.94 -231.813,313.35 -52.707,97.4 -78.586,185.28 -78.382,255.64 0.078,44.29 9.57,81.48 28.32,114.09 25.707,44.34 68.039,78.86 131.328,103.82 63.012,24.75 146.023,38.19 244.18,38.12 122.429,0.08 268.011,-20.71 427.785,-61.58 -3.332,-14.1 -6.606,-28.3 -9.789,-42.64 -31.184,-140.95 -54.824,-293.97 -69.66,-455.63 -4.547,-49.59 -8.215,-100.05 -11.067,-151.17 -4.515,-81 -6.933,-163.75 -6.937,-247.96 0.023,-84.11 2.406,-166.77 6.906,-247.68 0.008,-0.01 0.039,-0.05 0.039,-0.05 l 11.125,-151.2 -0.121,-0.12 c 0.027,-0.02 0.051,-0.04 0.074,-0.06 13.66,-149 34.832,-290.62 62.508,-422.269 34.234,4.172 72.044,13.281 112.494,28.203 -20.3,97.316 -37.01,200.706 -49.62,308.876 -5.69,48.8 -10.54,98.57 -14.51,149.2 -8.5,108.21 -12.99,220.28 -12.98,335.1 -0.03,114.8 4.44,226.87 12.94,335.06 3.98,50.68 8.88,100.46 14.57,149.32 15.84,135.64 38.08,263.8 65.75,381.8 l 28.86,112.35 c 19.67,70.28 41.33,136.26 64.79,197.11 57.05,148.51 124.82,266.64 195.82,344.43 35.43,38.95 71.43,67.75 106.6,86.41 35.27,18.68 69.34,27.55 104.06,27.61 34.72,-0.06 68.78,-8.93 104.07,-27.61 35.58,-18.77 72.02,-48.3 107.85,-87.89 -41.92,-43.96 -67.71,-103.43 -67.71,-168.97 0,-135.28 109.67,-244.95 244.95,-244.95 14.26,0 28.21,1.29 41.81,3.63 39.58,6.81 75.91,23.09 106.57,46.47 58.67,44.75 96.56,115.36 96.56,194.85 0,135.28 -109.66,244.95 -244.94,244.95 -27.42,0 -53.73,-4.58 -78.34,-12.88 -4.78,5.57 -9.57,11.06 -14.42,16.4 -42.5,46.67 -88.29,84.35 -137.92,110.76 -49.53,26.4 -103.26,41.21 -158.48,41.15 -55.22,0.06 -108.95,-14.75 -158.47,-41.15 -86.86,-46.43 -161.96,-126.39 -228.23,-230.75 -78.2,-123.64 -144.29,-282.77 -196.24,-468.46 -167.057,42.8 -321.443,65.2 -456.697,65.26 -108.45,-0.06 -204.93,-14.29 -286.434,-46.09 C 201.059,2747.21 133.84,2696.27 92.8203,2625 62.8164,2573.17 48.8867,2514.19 48.9688,2452.95 c 0.2109,-97.92 33.8476,-202.06 92.2772,-310.67 68.086,-125.99 170.535,-258.67 301.258,-392.29 z m 2111.086,-50.32 c -74.19,-66.31 -155.38,-132.55 -242.85,-197.62 -39.4,-29.32 -80.09,-58.37 -121.92,-87.1 -89.48,-61.47 -184.29,-121.41 -283.76,-178.84 -99.45,-57.41 -198.75,-109.51 -296.7,-156.25 -45.86,-21.88 -91.4,-42.59 -136.52,-62.07 -101.99,-44.02 -201.83,-81.962 -298.01,-113.403 -22.09,-7.231 -43.92,-14.004 -65.61,-20.547 -0.01,0.015 -0.01,0.055 -0.02,0.086 l -111.614,-31.153 -0.121,0.032 c 0.019,-0.063 0.027,-0.117 0.043,-0.176 -159.77,-40.883 -305.352,-61.672 -427.781,-61.582 -98.153,-0.07 -181.168,13.355 -244.192,38.113 -63.273,24.961 -105.609,59.485 -131.328,103.809 -18.766,32.629 -28.23,69.811 -28.324,114.091 -0.11,37.75 7.367,80.58 22.387,127.17 59.031,-14.33 123.433,-6.92 180.191,25.85 117.152,67.65 157.297,217.44 89.652,334.6 -7.129,12.36 -15.222,23.8 -24.047,34.4 -25.695,30.87 -57.949,54.19 -93.519,69.06 -68.098,28.43 -148.192,25.94 -217.031,-13.8 C 5.35547,1556.7 -34.7852,1406.89 32.8555,1289.73 46.5625,1266 63.6875,1245.48 83.1797,1228.32 61.1602,1165.96 49.0977,1105.4 48.9805,1047.06 48.8945,985.828 62.8086,926.855 92.8281,875 133.844,803.75 201.063,752.82 282.297,721.211 c 81.512,-31.809 177.98,-46.023 286.43,-46.094 135.261,0.071 289.664,22.473 456.723,65.274 20.6,-73.567 43.4,-143.028 68.25,-207.664 60.82,-157.688 133.4,-287.344 218.26,-380.813 42.5,-46.648 88.29,-84.3242 137.93,-110.7421 C 1499.41,14.7656 1553.14,-0.0390625 1608.36,0 h 0.34 c 55.09,0 108.71,14.8125 158.14,41.1719 86.86,46.4179 161.95,126.3941 228.22,230.7301 78.2,123.645 144.3,282.786 196.24,468.469 10.19,36.414 19.84,73.848 28.92,112.246 3.34,14.094 6.61,28.289 9.78,42.637 23.71,107.146 43.03,221.316 57.48,340.916 -35.94,-24.46 -80.3,-52.36 -127.15,-76.45 -14.08,-96.73 -31.47,-189.083 -51.83,-275.892 -9.04,-38.586 -18.7,-76.023 -28.87,-112.351 -19.67,-70.286 -41.33,-136.25 -64.78,-197.102 -57.05,-148.508 -124.83,-266.641 -195.81,-344.426 -35.44,-38.965 -71.45,-67.761 -106.61,-86.433 -35.29,-18.672 -69.35,-27.539 -104.07,-27.586 -34.72,0.047 -68.78,8.914 -104.06,27.586 -61.55,32.468 -125.67,96.933 -184.71,190.437 -70.06,110.344 -132.79,259.942 -182.54,437.531 24.07,7.215 48.3,14.739 72.79,22.735 128.29,41.941 262.1,94.699 398.52,157.597 45.25,20.872 90.78,42.872 136.52,65.974 72.39,36.59 145.22,75.85 218.13,117.93 h 0.01 c 72.84,42.07 143.23,85.45 211.05,129.8 0.07,0.2 0.11,0.33 0.11,0.33 l 125.39,85.24 0.29,-0.07 c 122.21,86.34 234.24,175.5 334.39,265.3 -20.72,27.57 -47.52,55.76 -80.66,83.35 z m -744.96,-296.53 c 191.57,110.6 257.21,355.55 146.6,547.12 -110.6,191.58 -355.56,257.2 -547.12,146.6 -191.57,-110.61 -257.21,-355.54 -146.61,-547.13 110.61,-191.55 355.55,-257.19 547.13,-146.59"
         style="fill:#100f0d;fill-opacity:1;fill-rule:nonzero;stroke:none"
         id="path14" /></g></g></svg>
